<svg id="Capa_1" data-name="Capa 1" xmlns="http://www.w3.org/2000/svg" viewBox="0 0 841.89 595.28"><defs><style>.cls-1{fill:#ea4b6b;}.cls-2{fill:#1d1d1b;}</style></defs><path class="cls-1" d="M192.56,184l40.09,85.08H234c4.56-10.11,9.78-21.19,16.62-34.88L274.05,184h28L246.34,290.63l57.37,113.43L277,411.23l-46.93-96.48h-1.31c-4.23,9.45-9.12,20.86-15,33.58l-29.66,62.9-24.45-7.49L216,291,161.92,184Z"/><path class="cls-2" d="M378.66,344.44c-8.52,5.75-25.07,10.12-40.71,10.12-22.31,0-46.92-8.74-46.92-33.81,0-13.8,11.27-25.3,27.6-27.83v-1.15c-14.72-3.22-22.08-12.42-22.08-23.46,0-14.72,14.72-30.13,44.39-30.13,14.48,0,25.76,3,33.81,8.51L370.38,260c-4.6-3-16.56-6.9-27.83-6.9-15.41,0-25.76,6.44-25.76,16.56,0,11,13.57,15.87,31,15.87h13.33v14.49h-14c-20,0-35,5.52-35,18.86,0,13.11,13.8,20.24,30.13,20.24,12.19,0,26-4.6,32.65-8.51Z"/><path class="cls-2" d="M419.59,325.12c0,9.89,2.08,14,10.81,13.57l-1.14,14.72a34.56,34.56,0,0,1-9.21,1.15c-11.72,0-20.69-5.29-20.69-27.37V240.71h20.23Z"/><path class="cls-2" d="M453.41,397.57c-2.07-6.9-2.53-23.23-2.53-40.48V305.57c0-28.75,7.36-41.63,16.1-50.83a51.17,51.17,0,0,1,38.18-16.56c31,0,50.82,23.23,50.82,56.58,0,39.33-24.6,59.8-50.82,59.8-14.49,0-27.14-6-33.58-16.33h-.69v17.94c0,12.88.23,32.2,1.84,41.4Zm17.48-89.24a30.88,30.88,0,0,0,.92,8.05,31.54,31.54,0,0,0,30.13,22.31c21.38,0,33.8-18.4,33.8-43.47,0-21.85-11.49-40.25-32.19-40.25-15.87,0-32.66,13.11-32.66,43.93Z"/><path class="cls-2" d="M682.25,295.45c0,41.17-28.52,59.11-55.43,59.11-30.13,0-53.36-22.08-53.36-57.27,0-37.26,24.38-59.11,55.2-59.11C660.63,238.18,682.25,261.41,682.25,295.45Zm-88.32,1.15c0,24.38,14,42.78,33.81,42.78,19.32,0,33.81-18.17,33.81-43.24,0-18.86-9.43-42.78-33.35-42.78S593.93,275.44,593.93,296.6Z"/></svg>